<mxfile host="Electron" modified="2023-12-22T07:43:22.090Z" agent="Mozilla/5.0 (Windows NT 10.0; Win64; x64) AppleWebKit/537.36 (KHTML, like Gecko) draw.io/22.1.11 Chrome/114.0.5735.289 Electron/25.9.8 Safari/537.36" etag="yal64qLI1GCmh8_Xbv2C" version="22.1.11" type="device">
  <diagram name="Страница — 1" id="ZptEkV1gXJQsk-GOeIuy">
    <mxGraphModel dx="472" dy="835" grid="1" gridSize="10" guides="1" tooltips="1" connect="1" arrows="1" fold="1" page="1" pageScale="1" pageWidth="827" pageHeight="1169" math="0" shadow="0">
      <root>
        <mxCell id="0" />
        <mxCell id="1" parent="0" />
        <mxCell id="Ccvjz1v6pIyaDVlusGKQ-3" style="edgeStyle=orthogonalEdgeStyle;rounded=0;orthogonalLoop=1;jettySize=auto;html=1;exitX=0.5;exitY=1;exitDx=0;exitDy=0;entryX=0.5;entryY=0;entryDx=0;entryDy=0;" edge="1" parent="1" source="Ccvjz1v6pIyaDVlusGKQ-1" target="Ccvjz1v6pIyaDVlusGKQ-2">
          <mxGeometry relative="1" as="geometry" />
        </mxCell>
        <mxCell id="Ccvjz1v6pIyaDVlusGKQ-1" value="начало&lt;br&gt;paint" style="rounded=1;whiteSpace=wrap;html=1;arcSize=50;" vertex="1" parent="1">
          <mxGeometry x="20" y="20" width="200" height="50" as="geometry" />
        </mxCell>
        <mxCell id="Ccvjz1v6pIyaDVlusGKQ-22" style="edgeStyle=orthogonalEdgeStyle;rounded=0;orthogonalLoop=1;jettySize=auto;html=1;exitX=0.5;exitY=1;exitDx=0;exitDy=0;entryX=0.5;entryY=0;entryDx=0;entryDy=0;" edge="1" parent="1" source="Ccvjz1v6pIyaDVlusGKQ-2" target="Ccvjz1v6pIyaDVlusGKQ-21">
          <mxGeometry relative="1" as="geometry" />
        </mxCell>
        <mxCell id="Ccvjz1v6pIyaDVlusGKQ-2" value="Вывод:&lt;br&gt;&lt;div&gt;line(0+400,250,600+400,250)&lt;/div&gt;&lt;div&gt;line(300+400,0,300+400,500)&lt;/div&gt;&lt;div&gt;line(400,0,400,500)&lt;/div&gt;&lt;div&gt;line(1000,0,1000,500)&lt;/div&gt;" style="shape=parallelogram;perimeter=parallelogramPerimeter;whiteSpace=wrap;html=1;fixedSize=1;" vertex="1" parent="1">
          <mxGeometry x="20" y="90" width="200" height="130" as="geometry" />
        </mxCell>
        <mxCell id="Ccvjz1v6pIyaDVlusGKQ-4" value="" style="endArrow=none;dashed=1;html=1;rounded=0;exitX=1;exitY=0.5;exitDx=0;exitDy=0;entryX=0;entryY=0.5;entryDx=0;entryDy=0;entryPerimeter=0;" edge="1" parent="1" source="Ccvjz1v6pIyaDVlusGKQ-2" target="Ccvjz1v6pIyaDVlusGKQ-5">
          <mxGeometry width="50" height="50" relative="1" as="geometry">
            <mxPoint x="320" y="220" as="sourcePoint" />
            <mxPoint x="260" y="155" as="targetPoint" />
          </mxGeometry>
        </mxCell>
        <mxCell id="Ccvjz1v6pIyaDVlusGKQ-5" value="" style="strokeWidth=2;html=1;shape=mxgraph.flowchart.annotation_1;align=left;pointerEvents=1;" vertex="1" parent="1">
          <mxGeometry x="260" y="105" width="50" height="100" as="geometry" />
        </mxCell>
        <mxCell id="Ccvjz1v6pIyaDVlusGKQ-6" value="line - вывод линии на экран по кординатам 2 точек&amp;nbsp;" style="text;html=1;strokeColor=none;fillColor=none;align=center;verticalAlign=middle;whiteSpace=wrap;rounded=0;" vertex="1" parent="1">
          <mxGeometry x="260" y="105" width="100" height="95" as="geometry" />
        </mxCell>
        <mxCell id="Ccvjz1v6pIyaDVlusGKQ-16" style="edgeStyle=orthogonalEdgeStyle;rounded=0;orthogonalLoop=1;jettySize=auto;html=1;exitX=0.5;exitY=1;exitDx=0;exitDy=0;entryX=0.5;entryY=0;entryDx=0;entryDy=0;" edge="1" parent="1" source="Ccvjz1v6pIyaDVlusGKQ-7" target="Ccvjz1v6pIyaDVlusGKQ-15">
          <mxGeometry relative="1" as="geometry" />
        </mxCell>
        <mxCell id="Ccvjz1v6pIyaDVlusGKQ-7" value="изменить режим кисти на штиховку&lt;br&gt;поставить режим диоганальных линий под 45 градусов с лева на право" style="rounded=0;whiteSpace=wrap;html=1;" vertex="1" parent="1">
          <mxGeometry x="20" y="310" width="200" height="60" as="geometry" />
        </mxCell>
        <mxCell id="Ccvjz1v6pIyaDVlusGKQ-18" style="edgeStyle=orthogonalEdgeStyle;rounded=0;orthogonalLoop=1;jettySize=auto;html=1;exitX=0.5;exitY=1;exitDx=0;exitDy=0;exitPerimeter=0;entryX=0.5;entryY=0;entryDx=0;entryDy=0;" edge="1" parent="1" source="Ccvjz1v6pIyaDVlusGKQ-9" target="Ccvjz1v6pIyaDVlusGKQ-12">
          <mxGeometry relative="1" as="geometry" />
        </mxCell>
        <mxCell id="Ccvjz1v6pIyaDVlusGKQ-9" value="цикл рисования 1&lt;br&gt;j = 8000" style="strokeWidth=2;html=1;shape=mxgraph.flowchart.loop_limit;whiteSpace=wrap;" vertex="1" parent="1">
          <mxGeometry x="20" y="460" width="200" height="50" as="geometry" />
        </mxCell>
        <mxCell id="Ccvjz1v6pIyaDVlusGKQ-32" style="edgeStyle=orthogonalEdgeStyle;rounded=0;orthogonalLoop=1;jettySize=auto;html=1;exitX=0.5;exitY=1;exitDx=0;exitDy=0;entryX=0.5;entryY=0;entryDx=0;entryDy=0;" edge="1" parent="1" source="Ccvjz1v6pIyaDVlusGKQ-12" target="Ccvjz1v6pIyaDVlusGKQ-30">
          <mxGeometry relative="1" as="geometry" />
        </mxCell>
        <mxCell id="Ccvjz1v6pIyaDVlusGKQ-12" value="&amp;nbsp;x=0.001*j" style="rounded=0;whiteSpace=wrap;html=1;" vertex="1" parent="1">
          <mxGeometry x="20" y="534.5" width="200" height="50" as="geometry" />
        </mxCell>
        <mxCell id="Ccvjz1v6pIyaDVlusGKQ-53" style="edgeStyle=orthogonalEdgeStyle;rounded=0;orthogonalLoop=1;jettySize=auto;html=1;exitX=0.5;exitY=1;exitDx=0;exitDy=0;entryX=0.5;entryY=0;entryDx=0;entryDy=0;" edge="1" parent="1" source="Ccvjz1v6pIyaDVlusGKQ-13" target="Ccvjz1v6pIyaDVlusGKQ-52">
          <mxGeometry relative="1" as="geometry" />
        </mxCell>
        <mxCell id="Ccvjz1v6pIyaDVlusGKQ-13" value="Вывод:&lt;br&gt;setpixel(round(300+400+k*x),&lt;br&gt;round(250-k*y(X)),clRed)" style="shape=parallelogram;perimeter=parallelogramPerimeter;whiteSpace=wrap;html=1;fixedSize=1;" vertex="1" parent="1">
          <mxGeometry x="20" y="670" width="200" height="50" as="geometry" />
        </mxCell>
        <mxCell id="Ccvjz1v6pIyaDVlusGKQ-15" value="j = -8000" style="rounded=0;whiteSpace=wrap;html=1;" vertex="1" parent="1">
          <mxGeometry x="20" y="390" width="200" height="50" as="geometry" />
        </mxCell>
        <mxCell id="Ccvjz1v6pIyaDVlusGKQ-17" style="edgeStyle=orthogonalEdgeStyle;rounded=0;orthogonalLoop=1;jettySize=auto;html=1;exitX=0.5;exitY=1;exitDx=0;exitDy=0;entryX=0.5;entryY=0;entryDx=0;entryDy=0;entryPerimeter=0;" edge="1" parent="1" source="Ccvjz1v6pIyaDVlusGKQ-15" target="Ccvjz1v6pIyaDVlusGKQ-9">
          <mxGeometry relative="1" as="geometry" />
        </mxCell>
        <mxCell id="Ccvjz1v6pIyaDVlusGKQ-26" style="edgeStyle=orthogonalEdgeStyle;rounded=0;orthogonalLoop=1;jettySize=auto;html=1;exitX=0.5;exitY=1;exitDx=0;exitDy=0;entryX=0.5;entryY=0;entryDx=0;entryDy=0;" edge="1" parent="1" source="Ccvjz1v6pIyaDVlusGKQ-21" target="Ccvjz1v6pIyaDVlusGKQ-7">
          <mxGeometry relative="1" as="geometry" />
        </mxCell>
        <mxCell id="Ccvjz1v6pIyaDVlusGKQ-21" value="Вывод:&lt;br&gt;&lt;div&gt;&lt;div&gt;TextOut(710,5,&#39;Y&#39;)&lt;/div&gt;&lt;div&gt;TextOut(990,245,&#39;X&#39;)&lt;/div&gt;&lt;/div&gt;" style="shape=parallelogram;perimeter=parallelogramPerimeter;whiteSpace=wrap;html=1;fixedSize=1;" vertex="1" parent="1">
          <mxGeometry x="20" y="240" width="200" height="50" as="geometry" />
        </mxCell>
        <mxCell id="Ccvjz1v6pIyaDVlusGKQ-25" value="Textout - вывод на экран окна с текстом по правой верхней точке окна и нужного внутри" style="text;html=1;strokeColor=none;fillColor=none;align=center;verticalAlign=middle;whiteSpace=wrap;rounded=0;" vertex="1" parent="1">
          <mxGeometry x="260" y="235" width="140" height="60" as="geometry" />
        </mxCell>
        <mxCell id="Ccvjz1v6pIyaDVlusGKQ-43" style="edgeStyle=orthogonalEdgeStyle;rounded=0;orthogonalLoop=1;jettySize=auto;html=1;exitX=0.5;exitY=0;exitDx=0;exitDy=0;exitPerimeter=0;entryX=0.5;entryY=0;entryDx=0;entryDy=0;" edge="1" parent="1" source="Ccvjz1v6pIyaDVlusGKQ-27" target="Ccvjz1v6pIyaDVlusGKQ-42">
          <mxGeometry relative="1" as="geometry" />
        </mxCell>
        <mxCell id="Ccvjz1v6pIyaDVlusGKQ-27" value="" style="strokeWidth=2;html=1;shape=mxgraph.flowchart.loop_limit;whiteSpace=wrap;rotation=-180;" vertex="1" parent="1">
          <mxGeometry x="20" y="810" width="200" height="55.5" as="geometry" />
        </mxCell>
        <mxCell id="Ccvjz1v6pIyaDVlusGKQ-28" value="цикл рисования 1" style="text;html=1;strokeColor=none;fillColor=none;align=center;verticalAlign=middle;whiteSpace=wrap;rounded=0;" vertex="1" parent="1">
          <mxGeometry x="60" y="820" width="120" height="30" as="geometry" />
        </mxCell>
        <mxCell id="Ccvjz1v6pIyaDVlusGKQ-31" style="edgeStyle=orthogonalEdgeStyle;rounded=0;orthogonalLoop=1;jettySize=auto;html=1;exitX=0.5;exitY=1;exitDx=0;exitDy=0;entryX=0.5;entryY=0;entryDx=0;entryDy=0;" edge="1" parent="1" source="Ccvjz1v6pIyaDVlusGKQ-30" target="Ccvjz1v6pIyaDVlusGKQ-13">
          <mxGeometry relative="1" as="geometry" />
        </mxCell>
        <mxCell id="Ccvjz1v6pIyaDVlusGKQ-30" value="Y" style="shape=process;whiteSpace=wrap;html=1;backgroundOutline=1;" vertex="1" parent="1">
          <mxGeometry x="20" y="600" width="200" height="50" as="geometry" />
        </mxCell>
        <mxCell id="Ccvjz1v6pIyaDVlusGKQ-34" value="" style="endArrow=none;dashed=1;html=1;rounded=0;exitX=1;exitY=0.5;exitDx=0;exitDy=0;entryX=0;entryY=0.5;entryDx=0;entryDy=0;entryPerimeter=0;" edge="1" parent="1" target="Ccvjz1v6pIyaDVlusGKQ-35">
          <mxGeometry width="50" height="50" relative="1" as="geometry">
            <mxPoint x="210" y="265" as="sourcePoint" />
            <mxPoint x="250" y="265" as="targetPoint" />
          </mxGeometry>
        </mxCell>
        <mxCell id="Ccvjz1v6pIyaDVlusGKQ-35" value="" style="strokeWidth=2;html=1;shape=mxgraph.flowchart.annotation_1;align=left;pointerEvents=1;" vertex="1" parent="1">
          <mxGeometry x="260" y="232.5" width="20" height="65" as="geometry" />
        </mxCell>
        <mxCell id="Ccvjz1v6pIyaDVlusGKQ-36" value="" style="endArrow=none;dashed=1;html=1;rounded=0;exitX=1;exitY=0.5;exitDx=0;exitDy=0;entryX=0;entryY=0.5;entryDx=0;entryDy=0;entryPerimeter=0;" edge="1" parent="1" target="Ccvjz1v6pIyaDVlusGKQ-37">
          <mxGeometry width="50" height="50" relative="1" as="geometry">
            <mxPoint x="210" y="695" as="sourcePoint" />
            <mxPoint x="250" y="695" as="targetPoint" />
          </mxGeometry>
        </mxCell>
        <mxCell id="Ccvjz1v6pIyaDVlusGKQ-37" value="" style="strokeWidth=2;html=1;shape=mxgraph.flowchart.annotation_1;align=left;pointerEvents=1;" vertex="1" parent="1">
          <mxGeometry x="260" y="662.5" width="20" height="65" as="geometry" />
        </mxCell>
        <mxCell id="Ccvjz1v6pIyaDVlusGKQ-38" value="round - округление до запятой" style="text;html=1;strokeColor=none;fillColor=none;align=center;verticalAlign=middle;whiteSpace=wrap;rounded=0;" vertex="1" parent="1">
          <mxGeometry x="260" y="662.5" width="180" height="30" as="geometry" />
        </mxCell>
        <mxCell id="Ccvjz1v6pIyaDVlusGKQ-39" value="setpixel - закрашивание пиксея (красным цветом-clred) по заданым кординатам&amp;nbsp; &amp;nbsp;" style="text;html=1;strokeColor=none;fillColor=none;align=center;verticalAlign=middle;whiteSpace=wrap;rounded=0;" vertex="1" parent="1">
          <mxGeometry x="255" y="692.5" width="190" height="30" as="geometry" />
        </mxCell>
        <mxCell id="Ccvjz1v6pIyaDVlusGKQ-48" style="edgeStyle=orthogonalEdgeStyle;rounded=0;orthogonalLoop=1;jettySize=auto;html=1;exitX=0.5;exitY=1;exitDx=0;exitDy=0;entryX=0.5;entryY=0;entryDx=0;entryDy=0;" edge="1" parent="1" source="Ccvjz1v6pIyaDVlusGKQ-42" target="Ccvjz1v6pIyaDVlusGKQ-47">
          <mxGeometry relative="1" as="geometry">
            <Array as="points">
              <mxPoint x="120" y="960" />
              <mxPoint x="440" y="960" />
              <mxPoint x="440" y="80" />
              <mxPoint x="560" y="80" />
            </Array>
          </mxGeometry>
        </mxCell>
        <mxCell id="Ccvjz1v6pIyaDVlusGKQ-42" value="Вывод:&lt;br&gt;использовать заливку серым по кродинатам(690,230)" style="shape=parallelogram;perimeter=parallelogramPerimeter;whiteSpace=wrap;html=1;fixedSize=1;" vertex="1" parent="1">
          <mxGeometry x="20" y="884.5" width="200" height="50" as="geometry" />
        </mxCell>
        <mxCell id="Ccvjz1v6pIyaDVlusGKQ-47" value="i = 0" style="rounded=0;whiteSpace=wrap;html=1;" vertex="1" parent="1">
          <mxGeometry x="460" y="110" width="200" height="50" as="geometry" />
        </mxCell>
        <mxCell id="Ccvjz1v6pIyaDVlusGKQ-56" style="edgeStyle=orthogonalEdgeStyle;rounded=0;orthogonalLoop=1;jettySize=auto;html=1;exitX=0.5;exitY=1;exitDx=0;exitDy=0;exitPerimeter=0;entryX=0.5;entryY=0;entryDx=0;entryDy=0;" edge="1" parent="1" source="Ccvjz1v6pIyaDVlusGKQ-49" target="Ccvjz1v6pIyaDVlusGKQ-55">
          <mxGeometry relative="1" as="geometry" />
        </mxCell>
        <mxCell id="Ccvjz1v6pIyaDVlusGKQ-49" value="цикл рисования 2&lt;br&gt;i = 250" style="strokeWidth=2;html=1;shape=mxgraph.flowchart.loop_limit;whiteSpace=wrap;" vertex="1" parent="1">
          <mxGeometry x="460" y="180" width="200" height="50" as="geometry" />
        </mxCell>
        <mxCell id="Ccvjz1v6pIyaDVlusGKQ-50" style="edgeStyle=orthogonalEdgeStyle;rounded=0;orthogonalLoop=1;jettySize=auto;html=1;exitX=0.5;exitY=1;exitDx=0;exitDy=0;entryX=0.5;entryY=0;entryDx=0;entryDy=0;entryPerimeter=0;" edge="1" parent="1" source="Ccvjz1v6pIyaDVlusGKQ-47" target="Ccvjz1v6pIyaDVlusGKQ-49">
          <mxGeometry relative="1" as="geometry" />
        </mxCell>
        <mxCell id="Ccvjz1v6pIyaDVlusGKQ-52" value="j = j + 1" style="rounded=0;whiteSpace=wrap;html=1;" vertex="1" parent="1">
          <mxGeometry x="20" y="740" width="200" height="50" as="geometry" />
        </mxCell>
        <mxCell id="Ccvjz1v6pIyaDVlusGKQ-54" style="edgeStyle=orthogonalEdgeStyle;rounded=0;orthogonalLoop=1;jettySize=auto;html=1;exitX=0.5;exitY=1;exitDx=0;exitDy=0;entryX=0.5;entryY=1;entryDx=0;entryDy=0;entryPerimeter=0;" edge="1" parent="1" source="Ccvjz1v6pIyaDVlusGKQ-52" target="Ccvjz1v6pIyaDVlusGKQ-27">
          <mxGeometry relative="1" as="geometry" />
        </mxCell>
        <mxCell id="Ccvjz1v6pIyaDVlusGKQ-55" value="j = 400" style="rounded=0;whiteSpace=wrap;html=1;" vertex="1" parent="1">
          <mxGeometry x="460" y="245.5" width="200" height="50" as="geometry" />
        </mxCell>
        <mxCell id="Ccvjz1v6pIyaDVlusGKQ-63" style="edgeStyle=orthogonalEdgeStyle;rounded=0;orthogonalLoop=1;jettySize=auto;html=1;exitX=0.5;exitY=1;exitDx=0;exitDy=0;exitPerimeter=0;entryX=0.5;entryY=0;entryDx=0;entryDy=0;" edge="1" parent="1" source="Ccvjz1v6pIyaDVlusGKQ-58" target="Ccvjz1v6pIyaDVlusGKQ-60">
          <mxGeometry relative="1" as="geometry" />
        </mxCell>
        <mxCell id="Ccvjz1v6pIyaDVlusGKQ-58" value="цикл рисования 3&lt;br&gt;j = 700" style="strokeWidth=2;html=1;shape=mxgraph.flowchart.loop_limit;whiteSpace=wrap;" vertex="1" parent="1">
          <mxGeometry x="460" y="315.5" width="200" height="50" as="geometry" />
        </mxCell>
        <mxCell id="Ccvjz1v6pIyaDVlusGKQ-59" style="edgeStyle=orthogonalEdgeStyle;rounded=0;orthogonalLoop=1;jettySize=auto;html=1;exitX=0.5;exitY=1;exitDx=0;exitDy=0;entryX=0.5;entryY=0;entryDx=0;entryDy=0;entryPerimeter=0;" edge="1" parent="1" source="Ccvjz1v6pIyaDVlusGKQ-55" target="Ccvjz1v6pIyaDVlusGKQ-58">
          <mxGeometry relative="1" as="geometry" />
        </mxCell>
        <mxCell id="Ccvjz1v6pIyaDVlusGKQ-66" style="edgeStyle=orthogonalEdgeStyle;rounded=0;orthogonalLoop=1;jettySize=auto;html=1;exitX=0.5;exitY=1;exitDx=0;exitDy=0;entryX=0.5;entryY=0;entryDx=0;entryDy=0;" edge="1" parent="1" source="Ccvjz1v6pIyaDVlusGKQ-60" target="Ccvjz1v6pIyaDVlusGKQ-65">
          <mxGeometry relative="1" as="geometry" />
        </mxCell>
        <mxCell id="Ccvjz1v6pIyaDVlusGKQ-73" style="edgeStyle=orthogonalEdgeStyle;rounded=0;orthogonalLoop=1;jettySize=auto;html=1;exitX=1;exitY=0.5;exitDx=0;exitDy=0;entryX=0.5;entryY=0;entryDx=0;entryDy=0;" edge="1" parent="1" source="Ccvjz1v6pIyaDVlusGKQ-60" target="Ccvjz1v6pIyaDVlusGKQ-71">
          <mxGeometry relative="1" as="geometry" />
        </mxCell>
        <mxCell id="Ccvjz1v6pIyaDVlusGKQ-60" value="цвет пикселя в позиции (j,i) =&lt;br&gt;цвету пикселя в позиции (699,249)" style="rhombus;whiteSpace=wrap;html=1;" vertex="1" parent="1">
          <mxGeometry x="460" y="385.5" width="200" height="80" as="geometry" />
        </mxCell>
        <mxCell id="Ccvjz1v6pIyaDVlusGKQ-61" value="да" style="text;html=1;strokeColor=none;fillColor=none;align=center;verticalAlign=middle;whiteSpace=wrap;rounded=0;" vertex="1" parent="1">
          <mxGeometry x="620" y="395.5" width="60" height="30" as="geometry" />
        </mxCell>
        <mxCell id="Ccvjz1v6pIyaDVlusGKQ-62" value="нет" style="text;html=1;strokeColor=none;fillColor=none;align=center;verticalAlign=middle;whiteSpace=wrap;rounded=0;" vertex="1" parent="1">
          <mxGeometry x="550" y="455.5" width="60" height="30" as="geometry" />
        </mxCell>
        <mxCell id="Ccvjz1v6pIyaDVlusGKQ-65" value="j = j + 1" style="rounded=0;whiteSpace=wrap;html=1;" vertex="1" parent="1">
          <mxGeometry x="460" y="565.5" width="200" height="50" as="geometry" />
        </mxCell>
        <mxCell id="Ccvjz1v6pIyaDVlusGKQ-70" value="Вывод:&lt;br&gt;использовать заливку серым по кродинатам(690,230)" style="shape=parallelogram;perimeter=parallelogramPerimeter;whiteSpace=wrap;html=1;fixedSize=1;" vertex="1" parent="1">
          <mxGeometry x="20" y="884.5" width="200" height="50" as="geometry" />
        </mxCell>
        <mxCell id="Ccvjz1v6pIyaDVlusGKQ-106" style="edgeStyle=orthogonalEdgeStyle;rounded=0;orthogonalLoop=1;jettySize=auto;html=1;exitX=0.5;exitY=1;exitDx=0;exitDy=0;" edge="1" parent="1" source="Ccvjz1v6pIyaDVlusGKQ-71">
          <mxGeometry relative="1" as="geometry">
            <mxPoint x="560" y="550" as="targetPoint" />
            <Array as="points">
              <mxPoint x="725" y="546" />
              <mxPoint x="561" y="546" />
            </Array>
          </mxGeometry>
        </mxCell>
        <mxCell id="Ccvjz1v6pIyaDVlusGKQ-71" value="Вывод:&lt;br&gt;нарисовать зашриховыный прямоугольник в позиции (j,i,j,i)" style="shape=parallelogram;perimeter=parallelogramPerimeter;whiteSpace=wrap;html=1;fixedSize=1;" vertex="1" parent="1">
          <mxGeometry x="630" y="475.5" width="190" height="50" as="geometry" />
        </mxCell>
        <mxCell id="Ccvjz1v6pIyaDVlusGKQ-82" style="edgeStyle=orthogonalEdgeStyle;rounded=0;orthogonalLoop=1;jettySize=auto;html=1;exitX=0.5;exitY=0;exitDx=0;exitDy=0;exitPerimeter=0;entryX=0.5;entryY=0;entryDx=0;entryDy=0;" edge="1" parent="1" source="Ccvjz1v6pIyaDVlusGKQ-75" target="Ccvjz1v6pIyaDVlusGKQ-78">
          <mxGeometry relative="1" as="geometry" />
        </mxCell>
        <mxCell id="Ccvjz1v6pIyaDVlusGKQ-75" value="" style="strokeWidth=2;html=1;shape=mxgraph.flowchart.loop_limit;whiteSpace=wrap;rotation=-180;" vertex="1" parent="1">
          <mxGeometry x="460" y="635.5" width="200" height="55.5" as="geometry" />
        </mxCell>
        <mxCell id="Ccvjz1v6pIyaDVlusGKQ-76" value="цикл рисования 3" style="text;html=1;strokeColor=none;fillColor=none;align=center;verticalAlign=middle;whiteSpace=wrap;rounded=0;" vertex="1" parent="1">
          <mxGeometry x="500" y="645.5" width="120" height="30" as="geometry" />
        </mxCell>
        <mxCell id="Ccvjz1v6pIyaDVlusGKQ-77" style="edgeStyle=orthogonalEdgeStyle;rounded=0;orthogonalLoop=1;jettySize=auto;html=1;exitX=0.5;exitY=1;exitDx=0;exitDy=0;entryX=0.5;entryY=1;entryDx=0;entryDy=0;entryPerimeter=0;" edge="1" parent="1" source="Ccvjz1v6pIyaDVlusGKQ-65" target="Ccvjz1v6pIyaDVlusGKQ-75">
          <mxGeometry relative="1" as="geometry" />
        </mxCell>
        <mxCell id="Ccvjz1v6pIyaDVlusGKQ-78" value="i = i + 1" style="rounded=0;whiteSpace=wrap;html=1;" vertex="1" parent="1">
          <mxGeometry x="460" y="715.5" width="200" height="50" as="geometry" />
        </mxCell>
        <mxCell id="Ccvjz1v6pIyaDVlusGKQ-101" style="edgeStyle=orthogonalEdgeStyle;rounded=0;orthogonalLoop=1;jettySize=auto;html=1;exitX=0.5;exitY=0;exitDx=0;exitDy=0;exitPerimeter=0;entryX=0.5;entryY=0;entryDx=0;entryDy=0;" edge="1" parent="1" source="Ccvjz1v6pIyaDVlusGKQ-79" target="Ccvjz1v6pIyaDVlusGKQ-89">
          <mxGeometry relative="1" as="geometry" />
        </mxCell>
        <mxCell id="Ccvjz1v6pIyaDVlusGKQ-79" value="" style="strokeWidth=2;html=1;shape=mxgraph.flowchart.loop_limit;whiteSpace=wrap;rotation=-180;" vertex="1" parent="1">
          <mxGeometry x="460" y="785.5" width="200" height="55.5" as="geometry" />
        </mxCell>
        <mxCell id="Ccvjz1v6pIyaDVlusGKQ-80" value="цикл рисования 3" style="text;html=1;strokeColor=none;fillColor=none;align=center;verticalAlign=middle;whiteSpace=wrap;rounded=0;" vertex="1" parent="1">
          <mxGeometry x="500" y="795.5" width="120" height="30" as="geometry" />
        </mxCell>
        <mxCell id="Ccvjz1v6pIyaDVlusGKQ-81" style="edgeStyle=orthogonalEdgeStyle;rounded=0;orthogonalLoop=1;jettySize=auto;html=1;exitX=0.5;exitY=1;exitDx=0;exitDy=0;entryX=0.5;entryY=1;entryDx=0;entryDy=0;entryPerimeter=0;" edge="1" parent="1" source="Ccvjz1v6pIyaDVlusGKQ-78" target="Ccvjz1v6pIyaDVlusGKQ-79">
          <mxGeometry relative="1" as="geometry" />
        </mxCell>
        <mxCell id="Ccvjz1v6pIyaDVlusGKQ-83" style="edgeStyle=orthogonalEdgeStyle;rounded=0;orthogonalLoop=1;jettySize=auto;html=1;exitX=0.5;exitY=1;exitDx=0;exitDy=0;exitPerimeter=0;entryX=0.5;entryY=0;entryDx=0;entryDy=0;" edge="1" parent="1" source="Ccvjz1v6pIyaDVlusGKQ-84" target="Ccvjz1v6pIyaDVlusGKQ-86">
          <mxGeometry relative="1" as="geometry" />
        </mxCell>
        <mxCell id="Ccvjz1v6pIyaDVlusGKQ-84" value="цикл рисования 4&lt;br&gt;j = 8000" style="strokeWidth=2;html=1;shape=mxgraph.flowchart.loop_limit;whiteSpace=wrap;" vertex="1" parent="1">
          <mxGeometry x="840" y="115" width="200" height="50" as="geometry" />
        </mxCell>
        <mxCell id="Ccvjz1v6pIyaDVlusGKQ-85" style="edgeStyle=orthogonalEdgeStyle;rounded=0;orthogonalLoop=1;jettySize=auto;html=1;exitX=0.5;exitY=1;exitDx=0;exitDy=0;entryX=0.5;entryY=0;entryDx=0;entryDy=0;" edge="1" parent="1" source="Ccvjz1v6pIyaDVlusGKQ-86" target="Ccvjz1v6pIyaDVlusGKQ-94">
          <mxGeometry relative="1" as="geometry" />
        </mxCell>
        <mxCell id="Ccvjz1v6pIyaDVlusGKQ-86" value="&amp;nbsp;x=0.001*j" style="rounded=0;whiteSpace=wrap;html=1;" vertex="1" parent="1">
          <mxGeometry x="840" y="189.5" width="200" height="50" as="geometry" />
        </mxCell>
        <mxCell id="Ccvjz1v6pIyaDVlusGKQ-87" style="edgeStyle=orthogonalEdgeStyle;rounded=0;orthogonalLoop=1;jettySize=auto;html=1;exitX=0.5;exitY=1;exitDx=0;exitDy=0;entryX=0.5;entryY=0;entryDx=0;entryDy=0;" edge="1" parent="1" source="Ccvjz1v6pIyaDVlusGKQ-88" target="Ccvjz1v6pIyaDVlusGKQ-99">
          <mxGeometry relative="1" as="geometry" />
        </mxCell>
        <mxCell id="Ccvjz1v6pIyaDVlusGKQ-88" value="Вывод:&lt;br&gt;setpixel(round(300+400+k*x),&lt;br&gt;round(250-k*y(X)),clRed)" style="shape=parallelogram;perimeter=parallelogramPerimeter;whiteSpace=wrap;html=1;fixedSize=1;" vertex="1" parent="1">
          <mxGeometry x="840" y="325" width="200" height="50" as="geometry" />
        </mxCell>
        <mxCell id="Ccvjz1v6pIyaDVlusGKQ-89" value="j = -8000" style="rounded=0;whiteSpace=wrap;html=1;" vertex="1" parent="1">
          <mxGeometry x="460" y="865.5" width="200" height="50" as="geometry" />
        </mxCell>
        <mxCell id="Ccvjz1v6pIyaDVlusGKQ-90" style="edgeStyle=orthogonalEdgeStyle;rounded=0;orthogonalLoop=1;jettySize=auto;html=1;exitX=0.5;exitY=1;exitDx=0;exitDy=0;entryX=0.5;entryY=0;entryDx=0;entryDy=0;entryPerimeter=0;" edge="1" parent="1" source="Ccvjz1v6pIyaDVlusGKQ-89" target="Ccvjz1v6pIyaDVlusGKQ-84">
          <mxGeometry relative="1" as="geometry">
            <Array as="points">
              <mxPoint x="560" y="960" />
              <mxPoint x="830" y="960" />
              <mxPoint x="830" y="95" />
              <mxPoint x="940" y="95" />
            </Array>
          </mxGeometry>
        </mxCell>
        <mxCell id="Ccvjz1v6pIyaDVlusGKQ-103" style="edgeStyle=orthogonalEdgeStyle;rounded=0;orthogonalLoop=1;jettySize=auto;html=1;exitX=0.5;exitY=0;exitDx=0;exitDy=0;exitPerimeter=0;entryX=0.5;entryY=0;entryDx=0;entryDy=0;" edge="1" parent="1" source="Ccvjz1v6pIyaDVlusGKQ-91" target="Ccvjz1v6pIyaDVlusGKQ-102">
          <mxGeometry relative="1" as="geometry" />
        </mxCell>
        <mxCell id="Ccvjz1v6pIyaDVlusGKQ-91" value="" style="strokeWidth=2;html=1;shape=mxgraph.flowchart.loop_limit;whiteSpace=wrap;rotation=-180;" vertex="1" parent="1">
          <mxGeometry x="840" y="465" width="200" height="55.5" as="geometry" />
        </mxCell>
        <mxCell id="Ccvjz1v6pIyaDVlusGKQ-92" value="цикл рисования 4" style="text;html=1;strokeColor=none;fillColor=none;align=center;verticalAlign=middle;whiteSpace=wrap;rounded=0;" vertex="1" parent="1">
          <mxGeometry x="880" y="475" width="120" height="30" as="geometry" />
        </mxCell>
        <mxCell id="Ccvjz1v6pIyaDVlusGKQ-93" style="edgeStyle=orthogonalEdgeStyle;rounded=0;orthogonalLoop=1;jettySize=auto;html=1;exitX=0.5;exitY=1;exitDx=0;exitDy=0;entryX=0.5;entryY=0;entryDx=0;entryDy=0;" edge="1" parent="1" source="Ccvjz1v6pIyaDVlusGKQ-94" target="Ccvjz1v6pIyaDVlusGKQ-88">
          <mxGeometry relative="1" as="geometry" />
        </mxCell>
        <mxCell id="Ccvjz1v6pIyaDVlusGKQ-94" value="Y" style="shape=process;whiteSpace=wrap;html=1;backgroundOutline=1;" vertex="1" parent="1">
          <mxGeometry x="840" y="255" width="200" height="50" as="geometry" />
        </mxCell>
        <mxCell id="Ccvjz1v6pIyaDVlusGKQ-95" value="" style="endArrow=none;dashed=1;html=1;rounded=0;exitX=1;exitY=0.5;exitDx=0;exitDy=0;entryX=0;entryY=0.5;entryDx=0;entryDy=0;entryPerimeter=0;" edge="1" parent="1" target="Ccvjz1v6pIyaDVlusGKQ-96">
          <mxGeometry width="50" height="50" relative="1" as="geometry">
            <mxPoint x="1030" y="350" as="sourcePoint" />
            <mxPoint x="1070" y="350" as="targetPoint" />
          </mxGeometry>
        </mxCell>
        <mxCell id="Ccvjz1v6pIyaDVlusGKQ-96" value="" style="strokeWidth=2;html=1;shape=mxgraph.flowchart.annotation_1;align=left;pointerEvents=1;" vertex="1" parent="1">
          <mxGeometry x="1080" y="317.5" width="20" height="65" as="geometry" />
        </mxCell>
        <mxCell id="Ccvjz1v6pIyaDVlusGKQ-97" value="round - округление до запятой" style="text;html=1;strokeColor=none;fillColor=none;align=center;verticalAlign=middle;whiteSpace=wrap;rounded=0;" vertex="1" parent="1">
          <mxGeometry x="1080" y="317.5" width="180" height="30" as="geometry" />
        </mxCell>
        <mxCell id="Ccvjz1v6pIyaDVlusGKQ-98" value="setpixel - закрашивание пиксея (красным цветом-clred) по заданым кординатам&amp;nbsp; &amp;nbsp;" style="text;html=1;strokeColor=none;fillColor=none;align=center;verticalAlign=middle;whiteSpace=wrap;rounded=0;" vertex="1" parent="1">
          <mxGeometry x="1075" y="347.5" width="190" height="30" as="geometry" />
        </mxCell>
        <mxCell id="Ccvjz1v6pIyaDVlusGKQ-99" value="j = j + 1" style="rounded=0;whiteSpace=wrap;html=1;" vertex="1" parent="1">
          <mxGeometry x="840" y="395" width="200" height="50" as="geometry" />
        </mxCell>
        <mxCell id="Ccvjz1v6pIyaDVlusGKQ-100" style="edgeStyle=orthogonalEdgeStyle;rounded=0;orthogonalLoop=1;jettySize=auto;html=1;exitX=0.5;exitY=1;exitDx=0;exitDy=0;entryX=0.5;entryY=1;entryDx=0;entryDy=0;entryPerimeter=0;" edge="1" parent="1" source="Ccvjz1v6pIyaDVlusGKQ-99" target="Ccvjz1v6pIyaDVlusGKQ-91">
          <mxGeometry relative="1" as="geometry" />
        </mxCell>
        <mxCell id="Ccvjz1v6pIyaDVlusGKQ-105" style="edgeStyle=orthogonalEdgeStyle;rounded=0;orthogonalLoop=1;jettySize=auto;html=1;exitX=0.5;exitY=1;exitDx=0;exitDy=0;entryX=0.5;entryY=0;entryDx=0;entryDy=0;" edge="1" parent="1" source="Ccvjz1v6pIyaDVlusGKQ-102" target="Ccvjz1v6pIyaDVlusGKQ-104">
          <mxGeometry relative="1" as="geometry">
            <Array as="points">
              <mxPoint x="940" y="980" />
              <mxPoint x="120" y="980" />
            </Array>
          </mxGeometry>
        </mxCell>
        <mxCell id="Ccvjz1v6pIyaDVlusGKQ-102" value="присвоить кисти обычный режим" style="rounded=0;whiteSpace=wrap;html=1;" vertex="1" parent="1">
          <mxGeometry x="840" y="535" width="200" height="50" as="geometry" />
        </mxCell>
        <mxCell id="Ccvjz1v6pIyaDVlusGKQ-104" value="конец" style="rounded=1;whiteSpace=wrap;html=1;arcSize=50;" vertex="1" parent="1">
          <mxGeometry x="20" y="1000" width="200" height="50" as="geometry" />
        </mxCell>
      </root>
    </mxGraphModel>
  </diagram>
</mxfile>
